# xmcd CD database file
#
# Track frame offsets:
#	150
#	20380
#	35892
#	53687
#	70584
#	83681
#	100185
#	123002
#	139452
#	153717
#	172269
#	188482
#	204544
#
# Disc length: 3008 seconds
#
# Revision: 0
# Processed by: cddbd v1.5.2PL0 Copyright (c) Steve Scherf et al.
# Submitted via: CDex 1.51
#
DISCID=af0bbe0d
DTITLE=Tricia Evy - Beginning
DYEAR=2009
DGENRE=Jazz
TTITLE0=There's No You
TTITLE1=Fanm Matinik Dou
TTITLE2=Embraceable You
TTITLE3=Golden Earrings
TTITLE4=Everythng I've Got
TTITLE5=Alone
TTITLE6=Douvan Pote Doudou
TTITLE7=Round about midnight
TTITLE8=Its' All Right with me
TTITLE9=Nuages
TTITLE10=Kalyste
TTITLE11=Maxece
TTITLE12=Je Me Suis Fait Tout Petit
EXTD=YEAR: 2009
EXTT0=
EXTT1=
EXTT2=
EXTT3=
EXTT4=
EXTT5=
EXTT6=
EXTT7=
EXTT8=
EXTT9=
EXTT10=
EXTT11=
EXTT12=
PLAYORDER=
